<svg width="64" height="64" viewBox="0 0 64 64" fill="none" xmlns="http://www.w3.org/2000/svg">
<g clip-path="url(#clip0_34_49)">
<path d="M32 64C49.6731 64 64 49.6731 64 32C64 14.3269 49.6731 0 32 0C14.3269 0 0 14.3269 0 32C0 49.6731 14.3269 64 32 64Z" fill="#C6C5B9"/>
<path d="M20 28C20 24 22 20 24 19C26 18 28 21 28 25C28 29 26 33 24 34C22 35 20 32 20 28ZM44 28C44 24 42 20 40 19C38 18 36 21 36 25C36 29 38 33 40 34C42 35 44 32 44 28ZM36 42C31 42 26 39 26 36C26 32 31 30 36 30C41 30 46 32 46 36C46 39 41 42 36 42ZM16 20C15 17 16 14 18 13C20 12 22 14 23 17C24 20 22 23 20 24C18 25 17 23 16 20ZM48 20C49 17 48 14 46 13C44 12 42 14 41 17C40 20 42 23 44 24C46 25 47 23 48 20Z" fill="#000100"/>
</g>
<defs>
<clipPath id="clip0_34_49">
<rect width="64" height="64" fill="white"/>
</clipPath>
</defs>
</svg>
